<svg width="13" height="20" viewBox="0 0 13 20" fill="none" xmlns="http://www.w3.org/2000/svg">
<path d="M11.9023 8.04932C12.0052 7.61274 12.059 7.16593 12.0625 6.71739C12.0945 5.95769 11.9726 5.19955 11.7039 4.48822C11.4353 3.77688 11.0256 3.12721 10.4993 2.57834C9.97313 2.02947 9.34133 1.5927 8.64195 1.29433C7.94256 0.995963 7.19005 0.842041 6.42968 0.842041C5.66931 0.842041 4.91679 0.995963 4.21741 1.29433C3.51802 1.5927 2.88622 2.02947 2.36001 2.57834C1.83379 3.12721 1.42405 3.77688 1.15542 4.48822C0.886782 5.19955 0.764816 5.95769 0.796854 6.71739C0.795796 7.16621 0.849598 7.61355 0.957073 8.04932C1.06418 8.80061 1.26956 9.5345 1.56792 10.2323C2.1287 11.3939 4.45193 15.2392 5.57348 16.9816C4.13148 17.1619 3.46055 17.7829 3.46055 18.3737C3.46055 18.9645 4.40186 19.8257 6.46472 19.8257C8.52759 19.8257 9.46889 19.0747 9.46889 18.3737C9.46889 17.6727 8.79797 17.1619 7.35597 16.9816C8.42745 15.2392 10.7507 11.3939 11.3014 10.2323C11.6083 9.53681 11.8173 8.8022 11.9223 8.04932H11.9023ZM8.59769 18.3737C8.5376 18.5339 7.8166 18.9544 6.4447 18.9544C5.07279 18.9544 4.34177 18.5239 4.29171 18.3837C4.24164 18.2435 4.9326 17.883 6.05415 17.8129C6.09226 17.8772 6.14646 17.9306 6.21142 17.9676C6.27639 18.0047 6.34989 18.0241 6.42467 18.0241C6.49945 18.0241 6.57294 18.0047 6.63791 17.9676C6.70288 17.9306 6.75708 17.8772 6.79518 17.8129C7.90673 17.883 8.49755 18.2235 8.54762 18.3737H8.59769ZM2.32898 9.86189C2.05716 9.22176 1.87194 8.54822 1.77821 7.85911C1.60054 7.15584 1.58572 6.42122 1.73488 5.71135C1.88403 5.00148 2.19323 4.33514 2.63892 3.76285C3.08461 3.19055 3.65504 2.7274 4.30675 2.40891C4.95846 2.09043 5.67427 1.92484 6.39964 1.92484C7.12501 1.92484 7.84081 2.09043 8.49252 2.40891C9.14423 2.7274 9.71465 3.19055 10.1603 3.76285C10.606 4.33514 10.9152 5.00148 11.0644 5.71135C11.2135 6.42122 11.1987 7.15584 11.0211 7.85911C10.9348 8.54861 10.7528 9.2227 10.4803 9.86189C9.91952 11.0335 7.37599 15.2193 6.40464 16.7914C5.40325 15.2193 2.89978 11.0335 2.339 9.86189" fill="#B80037"/>
<path d="M6.44469 3.52295C5.85052 3.52295 5.2697 3.69916 4.77566 4.02926C4.28163 4.35936 3.89658 4.82862 3.6692 5.37755C3.44182 5.92648 3.38233 6.53034 3.49825 7.11309C3.61416 7.69583 3.90028 8.2312 4.32042 8.65133C4.74056 9.07147 5.27585 9.35759 5.8586 9.47351C6.44135 9.58942 7.04539 9.52999 7.59433 9.30262C8.14327 9.07524 8.61246 8.69015 8.94256 8.19612C9.27267 7.70209 9.44886 7.12124 9.44886 6.52708C9.44886 5.73033 9.13235 4.9662 8.56896 4.40282C8.00557 3.83944 7.24145 3.52295 6.44469 3.52295ZM4.2917 6.52708C4.2917 6.10126 4.41797 5.68515 4.65455 5.3311C4.89112 4.97705 5.22737 4.70097 5.62078 4.53802C6.01418 4.37506 6.44708 4.33246 6.86471 4.41553C7.28235 4.49861 7.66598 4.70363 7.96708 5.00472C8.26818 5.30582 8.47324 5.68943 8.55631 6.10707C8.63938 6.5247 8.59675 6.95756 8.43379 7.35096C8.27084 7.74437 7.99488 8.08056 7.64082 8.31713C7.28677 8.5537 6.87051 8.67994 6.44469 8.67994C5.87368 8.67994 5.32606 8.45319 4.9223 8.04943C4.51853 7.64567 4.2917 7.09808 4.2917 6.52708Z" fill="#B80037"/>
</svg>
