<svg width="18" height="17" viewBox="0 0 18 17" fill="none" xmlns="http://www.w3.org/2000/svg">
<path d="M5.88975 5.76505H12.4489C12.4787 5.76508 12.5081 5.75889 12.5355 5.7472C12.5629 5.7355 12.5877 5.71835 12.6083 5.69681C12.6289 5.67528 12.6449 5.64988 12.6554 5.62197C12.6658 5.59407 12.6705 5.56419 12.6692 5.53441C12.6692 5.47596 12.646 5.41995 12.6046 5.37862C12.5633 5.33729 12.5073 5.31405 12.4489 5.31405H5.84971C5.81615 5.30694 5.78143 5.30749 5.74808 5.31552C5.71473 5.32354 5.6836 5.33892 5.65695 5.36052C5.6303 5.38212 5.6088 5.40928 5.59404 5.44025C5.57928 5.47123 5.57162 5.50524 5.57162 5.53955C5.57162 5.57386 5.57928 5.60763 5.59404 5.6386C5.6088 5.66958 5.6303 5.69698 5.65695 5.71858C5.6836 5.74018 5.71473 5.75556 5.74808 5.76358C5.78143 5.77161 5.81615 5.77217 5.84971 5.76505" fill="#B80037"/>
<path d="M12.7092 7.51721C12.7092 7.45878 12.686 7.40256 12.6447 7.36125C12.6034 7.31994 12.5473 7.29671 12.4889 7.29671H5.88975C5.8562 7.2896 5.82148 7.29016 5.78813 7.29818C5.75478 7.3062 5.72365 7.32157 5.697 7.34316C5.67035 7.36475 5.64886 7.39214 5.63409 7.42309C5.61933 7.45405 5.61167 7.4878 5.61167 7.52209C5.61167 7.55639 5.61933 7.59014 5.63409 7.6211C5.64886 7.65205 5.67035 7.67944 5.697 7.70103C5.72365 7.72262 5.75478 7.73799 5.78813 7.74601C5.82148 7.75403 5.8562 7.75459 5.88975 7.74747H12.4489C12.4787 7.74751 12.5081 7.74132 12.5355 7.72963C12.563 7.71794 12.5877 7.7008 12.6083 7.67927C12.6289 7.65775 12.6449 7.63237 12.6554 7.60447C12.6658 7.57658 12.6705 7.54696 12.6692 7.51721" fill="#B80037"/>
<path d="M17.6361 6.96637L14.8522 4.96357V4.4729C14.8417 3.99126 14.6409 3.53341 14.2937 3.19939C13.9466 2.86537 13.4813 2.68232 12.9996 2.69038H11.7479L9.49476 1.04795C9.43721 1.00409 9.36684 0.980469 9.29448 0.980469C9.22212 0.980469 9.15176 1.00409 9.09421 1.04795L6.85109 2.69038H5.58934C5.10766 2.68232 4.64238 2.86537 4.29522 3.19939C3.94807 3.53341 3.74729 3.99126 3.73677 4.4729V4.96357L0.952898 6.96637C0.912171 6.99935 0.878696 7.04037 0.854571 7.0869C0.830447 7.13342 0.816194 7.18447 0.812704 7.23677C0.812704 7.23677 0.812704 7.23658 0.812704 7.29666C0.812704 7.35675 0.812704 7.29666 0.812704 7.29666V15.7186C0.803782 15.7649 0.803782 15.8124 0.812704 15.8587C0.795551 15.8964 0.786674 15.9375 0.786674 15.979C0.786674 16.0204 0.795551 16.0613 0.812704 16.099C0.835583 16.1659 0.878734 16.2242 0.936159 16.2655C0.993583 16.3068 1.06243 16.3289 1.13315 16.3293H17.4558C17.5269 16.3305 17.5965 16.3087 17.6542 16.2672C17.7119 16.2257 17.7547 16.1667 17.7763 16.099C17.8064 16.0217 17.8064 15.9359 17.7763 15.8587C17.7857 15.8124 17.7857 15.7648 17.7763 15.7186V7.29666C17.7809 7.27691 17.7809 7.25652 17.7763 7.23677C17.7772 7.18361 17.7648 7.13092 17.7403 7.08372C17.7159 7.03652 17.68 6.99627 17.6361 6.96637ZM14.8522 5.76474L16.855 7.24679L14.8522 8.74889L14.7821 8.79876L14.8522 5.76474ZM9.29448 1.75914L10.5963 2.71042H7.99268L9.29448 1.75914ZM4.43774 4.44282C4.4482 4.14178 4.57721 3.85703 4.79667 3.6507C5.01614 3.44437 5.30825 3.33308 5.60936 3.34119H13.0197C13.1691 3.33584 13.3181 3.36022 13.4581 3.41282C13.5981 3.46542 13.7262 3.54534 13.8352 3.64777C13.9441 3.7502 14.0317 3.87313 14.0928 4.0096C14.1539 4.14608 14.1874 4.29334 14.1913 4.44282V9.28944L11.5376 11.2223C11.4901 11.2319 11.4455 11.2523 11.4074 11.2822L9.33454 12.8445L7.17154 11.2724L4.43774 9.26963V4.44282ZM3.75679 5.76474V8.76894L1.75401 7.26684L3.75679 5.76474ZM1.51368 7.99784L6.40046 11.5526L1.51368 15.0976V7.99784ZM2.16459 15.6985L6.98127 11.9734L9.14427 13.5354C9.20183 13.5792 9.27219 13.6031 9.34455 13.6031C9.41691 13.6031 9.48727 13.5792 9.54483 13.5354L11.6077 11.9734L16.4644 15.6985H2.16459ZM17.1153 15.0976L12.2386 11.5526L17.1153 7.99784V15.0976Z" fill="#B80037"/>
</svg>
