<svg width="17" height="17" viewBox="0 0 17 17" fill="none" xmlns="http://www.w3.org/2000/svg">
<path d="M1.80547 3.407C1.73986 3.47928 1.67961 3.55624 1.62522 3.6373C1.29143 3.99523 1.05315 4.43139 0.932389 4.90568C0.811629 5.37997 0.812275 5.87708 0.93426 6.35106C1.44159 8.98644 2.78907 11.3866 4.77488 13.1919C6.76068 14.9972 9.27792 16.1105 11.9496 16.3651H12.3C12.8937 16.3743 13.4787 16.2221 13.9924 15.9245C14.2184 15.7953 14.4215 15.6295 14.5932 15.4338L15.0639 14.9231C15.5018 14.4331 15.7285 13.7898 15.6948 13.1335C15.661 12.4772 15.3695 11.8608 14.8836 11.4182L14.0925 10.7073C13.6378 10.2937 13.0449 10.065 12.4302 10.0662C12.0855 10.0685 11.7449 10.1418 11.4296 10.2814C11.1144 10.4209 10.8312 10.6238 10.5977 10.8774L10.127 11.3982C9.94495 11.6003 9.79622 11.8301 9.68641 12.0791C7.81518 11.2873 6.27593 9.87187 5.33036 8.07344C5.67712 7.93328 5.98838 7.7179 6.24163 7.44268L6.71228 6.92193C7.14959 6.43354 7.37607 5.79191 7.3423 5.13721C7.30853 4.4825 7.01727 3.86786 6.53203 3.42705L5.74094 2.70607C5.50031 2.48706 5.21867 2.31786 4.9123 2.2083C4.60592 2.09874 4.28088 2.05096 3.95594 2.06772C3.63099 2.08448 3.31259 2.16535 3.01912 2.30585C2.72564 2.44635 2.4629 2.64365 2.24608 2.88625L1.80547 3.407ZM2.74678 3.30676C3.07433 2.94705 3.53086 2.73143 4.01675 2.70705C4.50264 2.68266 4.97845 2.8516 5.34038 3.1767L6.14149 3.89768C6.50119 4.22524 6.71676 4.68163 6.74115 5.16752C6.76553 5.65341 6.59677 6.12922 6.27167 6.49115L5.80102 7.0119C5.57423 7.25736 5.28795 7.44019 4.96986 7.54267H4.81965C4.77519 7.55637 4.73424 7.57975 4.69965 7.61088C4.66507 7.64201 4.63767 7.68032 4.61938 7.7231C4.5843 7.80981 4.5843 7.90654 4.61938 7.99325L4.68948 8.12356C5.73448 10.2139 7.51895 11.8414 9.69643 12.69H9.8166C9.85604 12.7074 9.89867 12.7162 9.94177 12.7162C9.98487 12.7162 10.0275 12.7074 10.0669 12.69C10.1456 12.6502 10.2064 12.5821 10.2372 12.4996V12.3695C10.3183 12.1318 10.4478 11.9137 10.6177 11.7287L11.0884 11.208C11.2619 11.0196 11.4723 10.8688 11.7067 10.7654C11.941 10.6621 12.1941 10.6082 12.4503 10.607C12.9059 10.6007 13.3467 10.7691 13.682 11.0776L14.4831 11.7986C14.8428 12.1262 15.0583 12.5828 15.0827 13.0687C15.1071 13.5546 14.9384 14.0304 14.6133 14.3923L14.1426 14.9131C14.0092 15.057 13.8537 15.1786 13.682 15.2735C13.1789 15.5632 12.5969 15.686 12.0197 15.6241C9.48538 15.3865 7.09593 14.3355 5.20809 12.6282C3.32025 10.9208 2.0353 8.6486 1.54511 6.15083C1.45105 5.78123 1.44744 5.39433 1.5346 5.02303C1.62175 4.65174 1.79711 4.30686 2.0458 4.01772C2.08681 3.95027 2.13372 3.88665 2.186 3.82751L2.74678 3.30676Z" fill="#B80037"/>
<path d="M16.7262 7.90315C16.7262 5.89976 15.931 3.9782 14.5153 2.56065C13.0996 1.1431 11.1791 0.345427 9.17571 0.342773C9.00042 0.342773 8.83231 0.412454 8.70837 0.536397C8.58442 0.660341 8.51479 0.828306 8.51479 1.00359C8.51479 1.17887 8.58442 1.34708 8.70837 1.47102C8.83231 1.59497 9.00042 1.66465 9.17571 1.66465C10.8286 1.6673 12.4128 2.32561 13.5806 3.49527C14.7484 4.66494 15.4043 6.25032 15.4043 7.90315C15.4043 8.07843 15.474 8.2464 15.5979 8.37034C15.7219 8.49428 15.89 8.56396 16.0653 8.56396C16.2406 8.56396 16.4087 8.49428 16.5326 8.37034C16.6566 8.2464 16.7262 8.07843 16.7262 7.90315ZM16.0653 8.24346C15.975 8.24346 15.8884 8.20781 15.8245 8.14396C15.7607 8.08011 15.7248 7.99345 15.7248 7.90315C15.7222 6.16615 15.0316 4.50076 13.8043 3.27158C12.577 2.04239 10.9127 1.34944 9.17571 1.34414C9.131 1.34414 9.08671 1.33534 9.04541 1.31823C9.0041 1.30112 8.96657 1.27601 8.93496 1.2444C8.90334 1.21278 8.87826 1.1752 8.86115 1.13389C8.84403 1.09259 8.83523 1.0483 8.83523 1.00359C8.83523 0.958878 8.84403 0.91459 8.86115 0.873283C8.87826 0.831976 8.90334 0.79464 8.93496 0.763025C8.96657 0.73141 9.0041 0.706304 9.04541 0.689194C9.08671 0.672084 9.131 0.66328 9.17571 0.66328C11.0942 0.665933 12.9331 1.42982 14.2887 2.78727C15.6443 4.14473 16.4057 5.98475 16.4057 7.90315C16.4057 7.99345 16.3699 8.08011 16.306 8.14396C16.2422 8.20781 16.1556 8.24346 16.0653 8.24346Z" fill="#B80037"/>
<path d="M9.08558 2.80615C8.91029 2.80615 8.74219 2.87583 8.61824 2.99977C8.4943 3.12372 8.42467 3.29192 8.42467 3.4672C8.42467 3.64248 8.4943 3.81045 8.61824 3.93439C8.74219 4.05833 8.91029 4.12801 9.08558 4.12801C10.1081 4.12801 11.0887 4.53423 11.8117 5.25723C12.5347 5.98022 12.9409 6.96062 12.9409 7.98309C12.9609 8.14563 13.0396 8.29531 13.1623 8.40382C13.285 8.51234 13.4431 8.57227 13.6069 8.57227C13.7706 8.57227 13.9287 8.51234 14.0514 8.40382C14.1741 8.29531 14.2528 8.14563 14.2728 7.98309C14.2701 6.60914 13.7225 5.29247 12.75 4.32188C11.7775 3.35129 10.4596 2.80615 9.08558 2.80615ZM13.6019 8.32364C13.5116 8.32364 13.425 8.28774 13.3611 8.22389C13.2972 8.16004 13.2614 8.07338 13.2614 7.98309C13.2614 6.87564 12.8214 5.81369 12.0383 5.0306C11.2552 4.24751 10.1931 3.80751 9.08558 3.80751C8.99528 3.80751 8.90868 3.77161 8.84483 3.70776C8.78098 3.64392 8.74511 3.5575 8.74511 3.4672C8.74507 3.37596 8.78062 3.28818 8.8442 3.22273C8.90777 3.15729 8.99437 3.11924 9.08558 3.11663C10.3755 3.11928 11.6119 3.63275 12.524 4.54484C13.4361 5.45693 13.9497 6.6932 13.9523 7.98309C13.9497 8.07429 13.9117 8.16105 13.8462 8.22463C13.7808 8.2882 13.6931 8.32367 13.6019 8.32364Z" fill="#B80037"/>
</svg>
